<?xml version="1.0" encoding="iso-8859-1"?>
<!-- Generator: Adobe Illustrator 16.0.0, SVG Export Plug-In . SVG Version: 6.00 Build 0)  -->
<!DOCTYPE svg PUBLIC "-//W3C//DTD SVG 1.1//EN" "http://www.w3.org/Graphics/SVG/1.1/DTD/svg11.dtd">
<svg version="1.1" id="Capa_1" xmlns="http://www.w3.org/2000/svg" xmlns:xlink="http://www.w3.org/1999/xlink" x="0px" y="0px"
	 width="512px" height="512px" viewBox="0 0 512 512" style="enable-background:new 0 0 512 512;" xml:space="preserve">
<g>
	<g id="Layer_1_78_">
		<g>
			<path style="fill:#D3D3D3;" d="M23.854,22.727H1.136C0.509,22.727,0,23.236,0,23.864S0.509,25,1.136,25h22.716
				c0.628,0,1.137-0.508,1.137-1.136C24.988,23.236,24.48,22.727,23.854,22.727z"/>
			<path style="fill:#D3D3D3;" d="M2.556,19.772c-0.627,0-1.136,0.509-1.136,1.137s0.509,1.137,1.136,1.137h19.877
				c0.627,0,1.136-0.509,1.136-1.137s-0.509-1.137-1.136-1.137h-0.284V9.543h0.284c0.314,0,0.567-0.254,0.567-0.568
				s-0.255-0.568-0.567-0.568H2.556c-0.314,0-0.567,0.254-0.567,0.568s0.254,0.568,0.567,0.568H2.84v10.228L2.556,19.772
				L2.556,19.772z M19.878,9.543v10.228H16.47V9.543H19.878z M14.198,9.543v10.228h-3.408V9.543H14.198z M5.111,9.543h3.407v10.228
				H5.111V9.543z"/>
			<path style="fill:#D3D3D3;" d="M1.136,7.386h22.716c0.004,0,0.009,0,0.012,0C24.492,7.386,25,6.877,25,6.25
				c0-0.499-0.321-0.922-0.768-1.076L12.962,0.1c-0.296-0.133-0.635-0.133-0.932,0L0.67,5.213c-0.489,0.22-0.757,0.751-0.645,1.275
				C0.138,7.012,0.601,7.386,1.136,7.386z"/>
		</g>
	</g>
</g>
</svg>
