<?xml version="1.0" encoding="iso-8859-1"?>
<!-- Generator: Adobe Illustrator 16.0.0, SVG Export Plug-In . SVG Version: 6.00 Build 0)  -->
<!DOCTYPE svg PUBLIC "-//W3C//DTD SVG 1.1//EN" "http://www.w3.org/Graphics/SVG/1.1/DTD/svg11.dtd">
<svg version="1.1" id="Layer_1" xmlns="http://www.w3.org/2000/svg" xmlns:xlink="http://www.w3.org/1999/xlink" x="0px" y="0px"
	 width="25px" height="25px" viewBox="0 0 25 25" style="enable-background:new 0 0 25 25;" xml:space="preserve">
<path style="fill:#D3D3D3;" d="M12.5,1.563c6.029,0,10.938,4.907,10.938,10.938S18.529,23.438,12.5,23.438
	c-6.03,0-10.937-4.907-10.937-10.938S6.47,1.563,12.5,1.563 M12.5,0C5.597,0,0,5.597,0,12.5C0,19.402,5.597,25,12.5,25
	C19.402,25,25,19.402,25,12.5C25,5.597,19.402,0,12.5,0L12.5,0z M19.468,16.68l-0.069-0.215c-0.164-0.49-0.707-1.003-1.207-1.141
	l-1.849-0.506c-0.5-0.135-1.215,0.048-1.581,0.416l-0.67,0.668c-2.429-0.658-4.335-2.563-4.991-4.993l0.668-0.668
	c0.366-0.366,0.549-1.08,0.414-1.582L9.678,6.812c-0.135-0.5-0.651-1.044-1.143-1.208l-0.21-0.07c-0.493-0.166-1.196,0-1.562,0.368
	L5.762,6.903C5.583,7.08,5.469,7.588,5.469,7.59c-0.034,3.177,1.211,6.237,3.458,8.484c2.24,2.24,5.289,3.484,8.455,3.456
	c0.017,0,0.541-0.111,0.72-0.289l1-1.001C19.467,17.874,19.632,17.171,19.468,16.68z"/>
</svg>
